<?xml version="1.0" standalone="no"?>
<!DOCTYPE svg PUBLIC "-//W3C//DTD SVG 20010904//EN"
 "http://www.w3.org/TR/2001/REC-SVG-20010904/DTD/svg10.dtd">
<svg version="1.0" xmlns="http://www.w3.org/2000/svg"
 width="512.000000pt" height="512.000000pt" viewBox="0 0 512.000000 512.000000"
 preserveAspectRatio="xMidYMid meet">

<g transform="translate(0.000000,512.000000) scale(0.100000,-0.100000)"
fill="#000000" stroke="none">
<path d="M2231 4699 c-289 -37 -553 -232 -672 -494 -57 -127 -74 -206 -73
-360 0 -152 12 -213 65 -339 34 -79 103 -188 148 -230 17 -17 31 -33 31 -37 0
-4 -24 -12 -52 -19 -29 -7 -106 -30 -172 -52 -65 -21 -119 -38 -120 -36 -1 2
-17 27 -35 56 -79 125 -205 186 -305 148 -53 -20 -78 -46 -108 -111 -29 -64
-30 -191 -4 -279 l18 -59 -58 -50 c-132 -113 -250 -253 -319 -379 l-37 -68
-133 0 c-127 0 -135 -1 -162 -24 l-28 -24 -3 -319 c-2 -197 1 -330 7 -346 7
-17 92 -91 228 -199 272 -216 504 -397 606 -472 l77 -57 0 -243 c0 -225 1
-246 19 -267 19 -24 22 -24 237 -27 224 -3 265 2 284 37 4 9 18 68 30 131 11
63 23 120 25 126 3 9 21 8 69 -2 225 -47 579 -60 811 -29 100 13 273 47 362
71 25 7 25 8 53 -151 23 -130 37 -160 78 -176 15 -6 112 -9 240 -7 l214 3 24
28 24 28 0 288 0 289 54 41 c81 63 236 227 289 308 58 87 119 217 142 298 9
33 18 66 20 73 4 9 15 7 47 -9 58 -30 170 -37 233 -15 44 14 51 14 97 0 66
-22 178 -15 236 15 98 50 165 141 182 244 13 86 -13 127 -79 127 -40 0 -68
-29 -76 -77 -11 -61 -15 -71 -42 -103 -30 -36 -72 -60 -107 -60 l-24 0 19 50
c35 92 23 192 -34 277 -87 130 -194 123 -265 -18 -49 -97 -51 -189 -7 -291 18
-44 -91 -2 -129 48 -10 14 -23 56 -28 92 -6 37 -21 110 -33 163 -98 413 -496
782 -1036 960 l-127 42 56 68 c95 113 150 216 189 360 14 49 18 100 17 214 0
135 -3 158 -28 235 -110 338 -382 567 -726 609 -94 12 -116 12 -209 0z m337
-193 c111 -41 190 -92 267 -170 82 -84 135 -171 172 -281 23 -70 27 -96 27
-210 0 -114 -4 -140 -27 -210 -37 -112 -90 -198 -175 -283 -67 -68 -76 -74
-104 -68 -154 31 -503 37 -687 12 l-113 -15 -36 27 c-92 70 -193 229 -229 362
-24 88 -24 262 0 350 65 240 243 422 487 497 66 20 91 23 210 20 117 -3 145
-7 208 -31z m-1398 -1353 c26 -23 55 -66 81 -119 48 -101 63 -109 154 -75 209
80 349 119 526 148 152 25 563 25 714 0 504 -84 900 -294 1134 -602 67 -89
135 -228 162 -330 29 -111 29 -289 0 -400 -56 -213 -207 -424 -418 -582 -40
-31 -74 -56 -75 -57 -1 0 -5 -127 -8 -280 l-5 -280 -118 1 c-65 0 -122 4 -126
9 -4 5 -20 77 -34 159 -23 131 -30 153 -52 173 -15 12 -33 22 -41 22 -8 0 -68
-15 -132 -34 -190 -55 -340 -77 -568 -83 -264 -7 -398 7 -700 74 -13 3 -32 -5
-49 -19 -25 -22 -31 -40 -54 -163 l-27 -139 -107 1 c-59 1 -114 2 -122 2 -13
1 -15 32 -15 214 0 148 -4 219 -13 236 -6 13 -52 53 -102 89 -87 62 -406 309
-666 516 l-128 101 0 248 -1 247 123 0 c141 0 146 3 186 94 59 137 210 315
363 430 93 70 101 90 64 169 -43 94 -53 194 -24 250 13 26 34 21 78 -20z
m3279 -1098 c0 -103 -23 -125 -35 -33 -7 53 14 144 27 113 4 -11 8 -47 8 -80z"/>
<path d="M2285 4335 c-16 -15 -25 -36 -25 -55 0 -16 -4 -30 -10 -30 -5 0 -35
-9 -65 -21 -204 -76 -217 -285 -23 -382 29 -14 98 -38 153 -53 102 -27 170
-57 179 -80 8 -20 -41 -52 -90 -60 -69 -10 -151 0 -182 23 -15 11 -32 35 -38
53 -13 41 -48 70 -81 70 -29 0 -83 -50 -83 -77 0 -100 88 -189 228 -229 6 -2
12 -17 12 -34 0 -41 39 -80 80 -80 41 0 80 39 80 79 0 27 4 31 54 45 117 34
192 126 182 221 -12 105 -98 172 -281 221 -119 31 -180 61 -180 89 0 53 166
75 252 34 34 -17 45 -28 53 -59 12 -44 26 -58 68 -66 26 -5 36 -1 62 24 35 36
38 68 11 127 -25 56 -88 109 -160 135 -56 21 -61 25 -61 52 0 39 -40 78 -80
78 -19 0 -40 -9 -55 -25z"/>
<path d="M2140 2984 c-111 -13 -200 -26 -233 -35 -71 -19 -85 -104 -22 -145
23 -15 33 -15 133 0 454 68 908 -22 1238 -245 151 -102 265 -230 335 -376 22
-45 48 -87 58 -93 53 -28 121 11 121 69 0 16 -20 69 -45 117 -175 349 -578
602 -1095 689 -91 15 -415 28 -490 19z"/>
<path d="M1125 2558 c-37 -29 -55 -76 -55 -143 0 -67 18 -114 55 -143 76 -60
165 17 165 143 0 126 -89 203 -165 143z"/>
</g>
</svg>
